<?xml version="1.0" encoding="UTF-8"?>
<svg id="Layer_2" data-name="Layer 2" xmlns="http://www.w3.org/2000/svg" viewBox="0 0 259.22 68.9">
  <defs>
    <style>
      .cls-1 {
        fill: #fff;
      }
    </style>
  </defs>
  <g id="Layer_1-2" data-name="Layer 1">
    <g>
      <g>
        <path d="M87.9,18.43c-4.08,0-7.3,1.72-9.66,5.16v-4.44h-7.3V7.35c0-4.06-3.29-7.35-7.35-7.35H7.35C3.29,0,0,3.29,0,7.35v54.19c0,4.06,3.29,7.35,7.35,7.35h56.23c4.06,0,7.35-3.29,7.35-7.35v-11.44h7.54v-17.34c0-2.44.67-4.35,2.01-5.73,1.34-1.38,2.97-2.07,4.89-2.07,3.88,0,5.82,1.96,5.82,5.88v19.26h7.56v-20.52c0-3.56-.97-6.31-2.91-8.25s-4.59-2.91-7.95-2.91Z"/>
        <path d="M130.19,27.73c0-6.2-4.3-9.3-12.9-9.3s-13.48,3.52-13.92,10.56h7.44c.16-1.8.72-3.07,1.68-3.81.96-.74,2.54-1.11,4.74-1.11,2.04,0,3.49.31,4.35.93.86.62,1.29,1.59,1.29,2.91,0,1.08-.34,1.89-1.02,2.43-.68.54-1.8.91-3.36,1.11l-4.68.42c-7.92.8-11.88,4.02-11.88,9.66,0,2.92,1.01,5.2,3.03,6.84,2.02,1.64,4.73,2.46,8.13,2.46,4.56,0,7.88-1.5,9.96-4.5.2,1.88.48,3.14.84,3.78h7.56c-.84-1.2-1.26-3.16-1.26-5.88v-16.5ZM122.87,37.87c0,2.44-.74,4.31-2.22,5.61-1.48,1.3-3.4,1.95-5.76,1.95-1.68,0-2.97-.37-3.87-1.11-.9-.74-1.35-1.77-1.35-3.09s.43-2.33,1.29-3.03c.86-.7,2.29-1.17,4.29-1.41l4.08-.48c1.64-.2,2.82-.62,3.54-1.26v2.82Z"/>
        <path d="M170.31,18.43c-4.08,0-7.28,1.92-9.6,5.76-1.68-3.84-4.88-5.76-9.6-5.76-3.76,0-6.7,1.72-8.82,5.16v-4.44h-7.32v30.96h7.56v-17.04c0-2.64.59-4.65,1.77-6.03,1.18-1.38,2.71-2.07,4.59-2.07,3.6,0,5.4,1.96,5.4,5.88v19.26h7.5v-17.04c0-2.64.59-4.65,1.77-6.03,1.18-1.38,2.73-2.07,4.65-2.07,3.56,0,5.34,1.96,5.34,5.88v19.26h7.56v-20.46c0-3.48-.95-6.22-2.85-8.22s-4.55-3-7.95-3Z"/>
        <path d="M199.9,18.43c-4.56,0-8.26,1.48-11.1,4.44-2.8,2.96-4.2,6.88-4.2,11.76s1.42,8.8,4.26,11.76,6.56,4.44,11.16,4.44c3.68,0,6.8-.93,9.36-2.79s4.24-4.37,5.04-7.53h-7.26c-1.28,2.96-3.64,4.44-7.08,4.44-2.32,0-4.17-.67-5.55-2.01-1.38-1.34-2.21-3.33-2.49-5.97h23.16v-1.8c0-5-1.38-9.04-4.14-12.12-2.76-3.08-6.48-4.62-11.16-4.62ZM192.1,31.69c.72-4.92,3.3-7.38,7.74-7.38,2.16,0,3.92.66,5.28,1.98,1.36,1.32,2.2,3.12,2.52,5.4h-15.54Z"/>
        <rect x="218.76" y="7.39" width="7.56" height="42.72"/>
        <path d="M251.3,19.15l-2.52,7.8c-2.12,6.96-3.78,12.7-4.98,17.22-1.52-6-3.16-11.76-4.92-17.28l-2.52-7.74h-8.16l9,25.44c.96,2.68,1.44,4.76,1.44,6.24s-.44,2.68-1.32,3.6c-.88.92-2.14,1.38-3.78,1.38h-2.88v5.94c.96.12,2.06.18,3.3.18,3.72,0,6.56-.68,8.52-2.04,1.92-1.32,3.52-3.74,4.8-7.26l11.94-33.48h-7.92Z"/>
      </g>
      <g>
        <path class="cls-1" d="M25.16,18.61v6.96h-1.92c-2.88,0-5.09.73-6.63,2.19s-2.31,3.61-2.31,6.45v15.72h-7.56v-30.96h7.32v5.52c1.72-4,4.8-6,9.24-6,.68,0,1.3.04,1.86.12Z"/>
        <path class="cls-1" d="M57.39,36.79h-23.16c.28,2.64,1.11,4.63,2.49,5.97s3.23,2.01,5.55,2.01c3.44,0,5.8-1.48,7.08-4.44h7.26c-.8,3.16-2.48,5.67-5.04,7.53-2.56,1.86-5.68,2.79-9.36,2.79-4.6,0-8.32-1.48-11.16-4.44s-4.26-6.88-4.26-11.76,1.4-8.8,4.2-11.76c2.84-2.96,6.54-4.44,11.1-4.44s8.4,1.54,11.16,4.62c2.76,3.08,4.14,7.12,4.14,12.12v1.8ZM34.29,31.51h15.54c-.32-2.28-1.16-4.08-2.52-5.4-1.36-1.32-3.12-1.98-5.28-1.98-4.44,0-7.02,2.46-7.74,7.38Z"/>
      </g>
      <rect class="cls-1" x="62.11" y="8.31" width="2.03" height="52.19"/>
    </g>
  </g>
</svg>