<?xml version="1.0" encoding="UTF-8"?>
<svg id="Layer_2" data-name="Layer 2" xmlns="http://www.w3.org/2000/svg" viewBox="0 0 259.22 68.9">
  <defs>
    <style>
      .cls-1 {
        fill: #fff;
      }
    </style>
  </defs>
  <g id="Layer_1-2" data-name="Layer 1">
    <g>
      <g>
        <path class="cls-1" d="M42.03,24.13c-4.44,0-7.02,2.46-7.74,7.38h15.54c-.32-2.28-1.16-4.08-2.52-5.4-1.36-1.32-3.12-1.98-5.28-1.98Z"/>
        <path class="cls-1" d="M63.58,0H7.35C3.29,0,0,3.29,0,7.35v54.19c0,4.06,3.29,7.35,7.35,7.35h56.23c4.06,0,7.35-3.29,7.35-7.35V7.35c0-4.06-3.29-7.35-7.35-7.35ZM25.16,25.57h-1.92c-2.88,0-5.09.73-6.63,2.19s-2.31,3.61-2.31,6.45v15.72h-7.56v-30.96h7.32v5.52c1.72-4,4.8-6,9.24-6,.68,0,1.3.04,1.86.12v6.96ZM57.39,36.79h-23.16c.28,2.64,1.11,4.63,2.49,5.97s3.23,2.01,5.55,2.01c3.44,0,5.8-1.48,7.08-4.44h7.26c-.8,3.16-2.48,5.67-5.04,7.53-2.56,1.86-5.68,2.79-9.36,2.79-4.6,0-8.32-1.48-11.16-4.44s-4.26-6.88-4.26-11.76,1.4-8.8,4.2-11.76c2.84-2.96,6.54-4.44,11.1-4.44s8.4,1.54,11.16,4.62c2.76,3.08,4.14,7.12,4.14,12.12v1.8ZM64.44,60.5h-2.63V8.31h2.63v52.19Z"/>
      </g>
      <g>
        <path class="cls-1" d="M95.85,21.33c1.94,1.94,2.91,4.69,2.91,8.25v20.52h-7.56v-19.26c0-3.92-1.94-5.88-5.82-5.88-1.92,0-3.55.69-4.89,2.07-1.34,1.38-2.01,3.29-2.01,5.73v17.34h-7.56v-30.96h7.32v4.44c2.36-3.44,5.58-5.16,9.66-5.16,3.36,0,6.01.97,7.95,2.91Z"/>
        <path class="cls-1" d="M123.89,50.1c-.36-.64-.64-1.9-.84-3.78-2.08,3-5.4,4.5-9.96,4.5-3.4,0-6.11-.82-8.13-2.46-2.02-1.64-3.03-3.92-3.03-6.84,0-5.64,3.96-8.86,11.88-9.66l4.68-.42c1.56-.2,2.68-.57,3.36-1.11.68-.54,1.02-1.35,1.02-2.43,0-1.32-.43-2.29-1.29-2.91-.86-.62-2.31-.93-4.35-.93-2.2,0-3.78.37-4.74,1.11-.96.74-1.52,2.01-1.68,3.81h-7.44c.44-7.04,5.08-10.56,13.92-10.56s12.9,3.1,12.9,9.3v16.5c0,2.72.42,4.68,1.26,5.88h-7.56ZM120.65,43.47c1.48-1.3,2.22-3.17,2.22-5.61v-2.82c-.72.64-1.9,1.06-3.54,1.26l-4.08.48c-2,.24-3.43.71-4.29,1.41-.86.7-1.29,1.71-1.29,3.03s.45,2.35,1.35,3.09c.9.74,2.19,1.11,3.87,1.11,2.36,0,4.28-.65,5.76-1.95Z"/>
        <path class="cls-1" d="M178.26,21.42c1.9,2,2.85,4.74,2.85,8.22v20.46h-7.56v-19.26c0-3.92-1.78-5.88-5.34-5.88-1.92,0-3.47.69-4.65,2.07-1.18,1.38-1.77,3.39-1.77,6.03v17.04h-7.5v-19.26c0-3.92-1.8-5.88-5.4-5.88-1.88,0-3.41.69-4.59,2.07-1.18,1.38-1.77,3.39-1.77,6.03v17.04h-7.56v-30.96h7.32v4.44c2.12-3.44,5.06-5.16,8.82-5.16,4.72,0,7.92,1.92,9.6,5.76,2.32-3.84,5.52-5.76,9.6-5.76,3.4,0,6.05,1,7.95,3Z"/>
        <path class="cls-1" d="M215.2,36.96h-23.16c.28,2.64,1.11,4.63,2.49,5.97,1.38,1.34,3.23,2.01,5.55,2.01,3.44,0,5.8-1.48,7.08-4.44h7.26c-.8,3.16-2.48,5.67-5.04,7.53s-5.68,2.79-9.36,2.79c-4.6,0-8.32-1.48-11.16-4.44s-4.26-6.88-4.26-11.76,1.4-8.8,4.2-11.76c2.84-2.96,6.54-4.44,11.1-4.44s8.4,1.54,11.16,4.62c2.76,3.08,4.14,7.12,4.14,12.12v1.8ZM192.1,31.68h15.54c-.32-2.28-1.16-4.08-2.52-5.4-1.36-1.32-3.12-1.98-5.28-1.98-4.44,0-7.02,2.46-7.74,7.38Z"/>
        <path class="cls-1" d="M218.76,50.1V7.38h7.56v42.72h-7.56Z"/>
        <path class="cls-1" d="M251.3,19.14h7.92l-11.94,33.48c-1.28,3.52-2.88,5.94-4.8,7.26-1.96,1.36-4.8,2.04-8.52,2.04-1.24,0-2.34-.06-3.3-.18v-5.94h2.88c1.64,0,2.9-.46,3.78-1.38.88-.92,1.32-2.12,1.32-3.6s-.48-3.56-1.44-6.24l-9-25.44h8.16l2.52,7.74c1.76,5.52,3.4,11.28,4.92,17.28,1.2-4.52,2.86-10.26,4.98-17.22l2.52-7.8Z"/>
      </g>
    </g>
  </g>
</svg>