<?xml version="1.0" encoding="UTF-8"?>
<svg id="Layer_2" data-name="Layer 2" xmlns="http://www.w3.org/2000/svg" viewBox="0 0 70.94 68.9">
  <defs>
    <style>
      .cls-1 {
        fill: #fff;
      }
    </style>
  </defs>
  <g id="Layer_1-2" data-name="Layer 1">
    <g>
      <path class="cls-1" d="M42.03,24.13c-4.44,0-7.02,2.46-7.74,7.38h15.54c-.32-2.28-1.16-4.08-2.52-5.4-1.36-1.32-3.12-1.98-5.28-1.98Z"/>
      <path class="cls-1" d="M63.58,0H7.35C3.29,0,0,3.29,0,7.35v54.19c0,4.06,3.29,7.35,7.35,7.35h56.23c4.06,0,7.35-3.29,7.35-7.35V7.35c0-4.06-3.29-7.35-7.35-7.35ZM25.16,25.57h-1.92c-2.88,0-5.09.73-6.63,2.19s-2.31,3.61-2.31,6.45v15.72h-7.56v-30.96h7.32v5.52c1.72-4,4.8-6,9.24-6,.68,0,1.3.04,1.86.12v6.96ZM57.39,36.79h-23.16c.28,2.64,1.11,4.63,2.49,5.97s3.23,2.01,5.55,2.01c3.44,0,5.8-1.48,7.08-4.44h7.26c-.8,3.16-2.48,5.67-5.04,7.53-2.56,1.86-5.68,2.79-9.36,2.79-4.6,0-8.32-1.48-11.16-4.44s-4.26-6.88-4.26-11.76,1.4-8.8,4.2-11.76c2.84-2.96,6.54-4.44,11.1-4.44s8.4,1.54,11.16,4.62c2.76,3.08,4.14,7.12,4.14,12.12v1.8ZM64.44,60.5h-2.63V8.31h2.63v52.19Z"/>
    </g>
  </g>
</svg>